<?xml version="1.0" encoding="utf-8"?>
<!DOCTYPE svg PUBLIC "-//W3C//DTD SVG 1.0//EN" "http://www.w3.org/TR/2001/REC-SVG-20010904/DTD/svg10.dtd">
<svg version="1.0" xmlns="http://www.w3.org/2000/svg" width="1408px" height="786px" viewBox="0 0 1408 786" preserveAspectRatio="xMidYMid meet">
 <g fill="#fbfbf7">
 </g>
 <g fill="#0b5145">
  <path d="M393.2 499.7 l-4.3 -1.4 3.6 -5 c1.9 -2.7 4.3 -7.1 5.2 -9.7 1.3 -4.1 1.9 -4.7 3.8 -4.2 1.1 0.3 2.9 0.6 3.9 0.6 1.5 0 1.5 0.5 0.1 5.9 -1.4 5.4 -5.5 13.9 -7.3 14.8 -0.4 0.2 -2.7 -0.2 -5 -1z"/>
  <path d="M747.2 428.2 c-10.7 -3.3 -16.5 -12.1 -17.4 -26.6 l-0.5 -8.7 9.4 0 9.3 0 0 6.1 c0 3.5 0.7 7.6 1.5 9.2 3.2 6 13.2 6 16.4 -0.1 2.1 -4.1 1.8 -12.8 -0.5 -18.3 -1.4 -3.2 -6.1 -8.6 -15.3 -17.4 -16.4 -15.9 -18.7 -20.1 -19.2 -34.7 -0.6 -15.8 3.2 -24.1 13.2 -29.2 4.6 -2.3 6.8 -2.7 14.5 -2.7 8 0 9.8 0.3 14.1 2.7 8.4 4.6 13.2 14.1 13.2 26.2 l0 5.9 -8.7 0 -8.7 0 0 -3.8 c0 -10.8 -4.7 -16 -12.5 -13.7 -5.3 1.6 -7.4 5.7 -6.7 13.4 0.8 9.4 2 11.2 20.8 28.7 9.4 8.9 12.9 14.2 15.3 23.5 4.3 16.7 -1.8 33.4 -14.3 39 -5 2.3 -17.3 2.6 -23.9 0.4z"/>
  <path d="M543.3 367.9 l0 -60.9 9.2 0 9.2 0 0 52.2 0 52.2 15.9 0 16 0 -0.3 8.5 -0.3 8.4 -24.8 0.3 -24.9 0.2 0 -60.9z"/>
  <path d="M606.2 427.7 l-8.2 -0.5 4.9 -29.7 c8.3 -50.4 15.1 -88.9 16.1 -89.8 0.4 -0.4 6.2 -0.6 13 -0.5 l12.1 0.3 4.9 28.1 c2.7 15.5 7.3 42.5 10.2 59.9 l5.4 31.7 -9.1 0.3 c-4.9 0.1 -9.2 0.1 -9.4 -0.1 -0.2 -0.2 -1.1 -5.3 -2 -11.3 l-1.7 -10.9 -11.5 0 c-8.4 0 -11.7 0.3 -12.1 1.3 -0.2 0.7 -1 5.6 -1.7 10.9 -0.7 5.3 -1.5 9.9 -1.9 10.2 -0.3 0.3 -4.3 0.3 -8.9 0z m32.9 -42.2 c-0.3 -1.3 -2 -12.5 -3.8 -24.9 -3.1 -21.1 -4.1 -25.4 -5.6 -23.7 -0.6 0.6 -7.6 44.7 -7.6 48.6 0 2.1 0.3 2.3 8.7 2.3 8.5 0 8.7 -0.1 8.3 -2.3z"/>
  <path d="M702.3 428 l-2.4 -0.4 0 -60.4 0 -60.3 9.2 0 9.2 0 0 60.4 0 60.4 -3.3 0 c-1.8 0 -5 0.2 -7 0.4 -1.9 0.2 -4.6 0.2 -5.8 -0.1z"/>
  <path d="M797.6 427.5 c-0.3 -0.7 -0.4 -28 -0.3 -60.7 l0.3 -59.3 9.5 -0.3 9.4 -0.3 0 52.3 0 52.2 15.3 0 15.3 0 0 8.7 0 8.7 -24.6 0 c-18.7 0 -24.8 -0.3 -25.1 -1.2z"/>
  <path d="M853 427.8 c-0.6 -0.9 3.4 -26 13.3 -83.5 2.5 -14.6 5 -29.1 5.6 -31.9 l1 -5.4 12.8 0 c12.3 0 12.7 0.1 13.2 2.3 0.3 1.3 2.1 11.8 4.1 23.3 1.9 11.6 6 36.2 9.2 54.7 3.1 18.6 5.9 35.3 6.2 37.1 l0.5 3.3 -9.2 0 -9.2 0 -0.6 -3.3 c-0.3 -1.8 -1.1 -6.9 -1.8 -11.1 l-1.2 -7.7 -11.8 0 -11.8 0 -0.7 4.1 c-0.4 2.3 -1.3 7.4 -2 11.3 l-1.3 7.2 -7.9 0.3 c-4.3 0.2 -8.1 -0.2 -8.4 -0.7z m40.3 -41.2 c0 -4 -7.7 -51 -8.4 -51 -1 0 -1.2 1.2 -4.9 25.6 -1.7 11.6 -3.4 22.2 -3.7 23.8 l-0.6 2.8 8.8 0 c6.3 0 8.8 -0.3 8.8 -1.2z"/>
  <path d="M1113.5 427.8 c-1.2 -0.7 -1 -3.3 0.7 -15 2.7 -17.1 17.4 -102.7 18 -104.5 0.3 -1 3.9 -1.3 13.1 -1.3 l12.7 0 4.3 25.4 c7.1 40.5 15.1 88.4 15.7 92.1 l0.5 3.3 -9.4 0 -9.4 0 -1.2 -7.9 c-0.7 -4.4 -1.5 -9.5 -1.8 -11.3 l-0.5 -3.4 -11.6 0 -11.6 0 -1.2 7.5 c-0.6 4 -1.4 9.2 -1.8 11.5 l-0.8 4.1 -7.1 0.3 c-4 0.1 -7.8 -0.2 -8.5 -0.7z m39.4 -42.8 c-0.3 -1.6 -2 -13.1 -4 -25.6 -1.8 -12.6 -3.8 -22.8 -4.4 -22.8 -0.6 0 -2.6 10.2 -4.4 22.8 -1.9 12.5 -3.7 23.9 -4 25.6 l-0.5 2.8 8.9 0 8.9 0 -0.5 -2.8z"/>
  <path d="M968.6 426.5 c-0.3 -0.7 -3.7 -21.4 -7.7 -45.8 -9.5 -58.4 -11.4 -70.3 -11.4 -72.1 0 -1.3 1.4 -1.5 8.9 -1.3 l8.9 0.3 1.3 8.2 c0.7 4.5 3.9 24.8 7.1 45 3.1 20.3 5.8 36.9 5.9 37.1 0.2 0.1 1.1 -4.9 2 -11.3 4.7 -31.1 12 -77.2 12.4 -78.3 0.5 -1.4 16.9 -1.9 16.9 -0.5 0 0.4 -3.2 20.8 -7.2 45.2 -4 24.5 -8.2 51.2 -9.5 59.3 l-2.3 14.8 -12.6 0.3 c-9.5 0.2 -12.6 0 -12.9 -1z"/>
  <path d="M1021.2 369 c0 -32.3 0.3 -59.5 0.6 -60.4 0.5 -1.3 2.4 -1.6 9.7 -1.6 l9.1 0 0 60.4 0 60.4 -9.7 0 -9.7 0 0 -58.7z"/>
  <path d="M1063.8 397.3 c-7.4 -45.3 -13.8 -84.3 -14.4 -87.5 l-0.4 -2.9 9.1 0 c8.7 0 9.2 0.1 9.7 2.4 0.9 4 5.3 31.9 9.7 61.1 2.4 15.5 4.4 28.3 4.6 28.5 0.4 0.4 0 3.3 8 -49 l6.4 -42.5 8.4 -0.3 c6.7 -0.2 8.4 0 8.4 1.1 0 2.1 -3.4 23.9 -10.7 69.3 -3.6 22.2 -6.9 42.6 -7.2 45.3 l-0.7 4.8 -13 0 -12.9 0 -5 -30.4z"/>
  <path d="M453.8 357.2 c-13 -3.4 -21.2 -14 -21.3 -27.7 0 -5.2 0.5 -7.8 2.7 -11.9 3.3 -6.5 10.2 -12.7 14.1 -12.7 l2.9 0 -2.5 5.4 c-3.8 7.9 -3.5 15.1 0.8 23.3 4.7 9.3 10.2 12.6 21.9 13.1 4.7 0.1 8.5 0.7 8.5 1.2 0 1 -5.6 5.2 -10.1 7.6 -3.9 1.9 -12.5 2.9 -17 1.6z"/>
  <path d="M433.2 288.1 c-0.9 -2.5 0.4 -4.9 2.4 -4.5 1.2 0.2 1.8 1.2 1.8 2.9 0 3 -3.3 4.2 -4.2 1.6z"/>
  <path d="M401.3 274 c0.4 -3.2 5.4 -3.5 5.4 -0.3 0 1.5 -0.8 2.1 -2.9 2.4 -2.6 0.3 -2.9 0 -2.6 -2z"/>
 </g>
 <g fill="#d76a48">
  <path d="M350.2 532 c-23.8 -2.8 -52.5 -15.8 -70.3 -31.8 l-5 -4.6 3.5 -1.9 c2.9 -1.5 5.7 -1.9 14.3 -1.9 10.2 0 11.1 0.2 16.9 3.4 3.4 1.8 12.2 8.6 19.4 15.1 7.4 6.4 16.8 14.1 21 16.9 7.5 5 9 6.1 8.1 5.9 -0.2 -0.1 -3.8 -0.5 -7.9 -1z"/>
  <path d="M379.1 529.1 c-14 -4.2 -25.5 -11.5 -42.4 -26.7 -20.3 -18.2 -29.3 -22.7 -44.7 -22.6 -9.7 0.1 -14.3 1.2 -21.4 5.2 l-4.1 2.3 -3.4 -3.9 c-1.9 -2.3 -4.2 -5.1 -5.1 -6.4 -1.5 -2.4 -1.5 -2.6 1.3 -4.9 5.9 -4.8 17.7 -9.7 25.9 -10.7 21.2 -2.8 35.5 2.8 62 23.9 25.7 20.5 47.4 29.7 74.3 31.4 l10.7 0.6 -7.2 3.4 c-3.9 1.8 -8.5 4.1 -10.1 5 -3.4 1.8 -21 5.4 -26.2 5.3 -1.9 0 -6.3 -0.8 -9.7 -1.8z"/>
  <path d="M414.4 504.9 c-1.4 -0.3 -5.6 -1.2 -9.4 -2 l-6.8 -1.6 2.9 -4.6 c1.6 -2.6 3.6 -7.2 4.2 -10.1 0.7 -3.1 1.7 -5.5 2.4 -5.5 0.6 0 4.8 0.7 9.3 1.5 16.7 3 34.7 1.5 52 -4.2 4.4 -1.4 8.3 -2.5 8.6 -2.1 0.9 0.9 -11.3 15 -17.7 20.6 -3.9 3.4 -7.6 5.5 -11.1 6.5 -5.1 1.4 -29.3 2.6 -34.4 1.6z"/>
  <path d="M380.1 494.1 c-9.1 -4.6 -13.9 -8 -28.1 -19.2 -13.5 -10.7 -25.1 -17.8 -35.6 -21.6 -20.6 -7.7 -43.2 -4.4 -61.7 8.7 l-4.8 3.5 -3.2 -6 c-1.7 -3.3 -3.2 -6.5 -3.2 -7.4 0 -3.3 16.5 -13.5 28.4 -17.7 27.1 -9.5 48.2 -4.3 85.6 21.2 16.9 11.5 29.7 18.6 37.7 21.3 3.6 1.1 3.9 1.5 3.3 4 -1 4.3 -4.3 10.5 -7.4 14.1 l-2.9 3.3 -8.2 -4.1z"/>
  <path d="M422.1 472.1 c-1.1 -0.2 -4.7 -0.9 -7.9 -1.5 l-5.7 -1.1 -0.6 -4.8 c-0.3 -2.6 -0.8 -7.1 -1.1 -9.9 -0.4 -3.1 -0.2 -5.5 0.3 -5.9 0.6 -0.3 5.1 0.4 10.1 1.5 6.7 1.6 12.2 2.3 21.3 2.1 18.5 0 32.7 -4.2 52.6 -15.6 3 -1.7 6.3 -3.1 7.4 -2.9 1.7 0.3 1.6 0.9 -1.5 8.3 -5 11.4 -5.4 11.9 -16.1 18.2 -13.9 8.3 -25 11.3 -42.9 11.8 -7.6 0.1 -14.7 0.1 -15.9 -0.2z"/>
  <path d="M684.9 465.6 c0 -2.6 0.2 -3.6 0.4 -2.3 0.2 1.2 0.2 3.3 0 4.6 -0.2 1.2 -0.4 0.2 -0.4 -2.4z"/>
  <path d="M417.5 439.3 c-4.2 -0.9 -7.9 -1.8 -8 -1.9 -0.2 -0.1 1.4 -2.7 3.7 -5.7 2.3 -3 4.8 -7 5.7 -8.8 1.5 -2.9 2 -3.2 4.5 -2.6 1.5 0.5 8.5 0.8 15.6 0.8 10.4 0 14.2 -0.5 20.5 -2.5 15.5 -4.8 28.2 -12.9 39.1 -24.7 l6.8 -7.2 0.4 3.1 c0.3 1.6 0.2 6.8 -0.2 11.4 l-0.6 8.4 -9.4 9 c-5.2 5 -9.9 9.1 -10.4 9.1 -0.5 0 -3.6 1.5 -6.9 3.5 -3.3 1.9 -9.6 4.7 -14.1 6.2 -7.2 2.5 -10 2.9 -23.5 3.2 -11.5 0.2 -17.3 -0.1 -23 -1.3z"/>
  <path d="M236.1 434.6 c-2.7 -8.5 -2.5 -9.3 4.2 -14.6 22 -17.5 48.8 -23.7 76.6 -17.7 5.4 1.1 10.9 2.6 12.3 3.1 2.4 0.8 2.4 1 0.9 3.9 -0.9 1.6 -4.2 5.2 -7.4 8 l-5.7 5.1 -5.2 -1.4 c-6.2 -1.7 -26.7 -2.1 -28.5 -0.5 -0.7 0.5 -4.5 1.5 -8.5 2.1 -8.1 1.2 -22.7 7.9 -30.5 13.7 -2.7 2.1 -5.2 3.8 -5.6 3.8 -0.5 0 -1.6 -2.5 -2.6 -5.4z"/>
  <path d="M436.3 408.1 c0.3 -1.3 0.9 -5.7 1.2 -9.7 0.8 -8.4 -0.4 -7.5 12 -9 16.4 -2.1 33.6 -13.7 45.1 -30.5 2.3 -3.2 4.6 -5.8 5.2 -5.8 1.1 0 3.6 10.4 3.6 15 0 4.9 -13.6 21.1 -24.1 28.5 -11.5 8.2 -27.3 13.7 -39.4 13.7 -3.9 0 -4.2 -0.2 -3.6 -2.3z"/>
 </g>
 <g fill="#ecaf37">
  <path d="M422.2 407.8 c-0.3 -0.9 -0.6 -3 -0.6 -4.5 0 -7.4 -9.5 -20.3 -18.1 -24.5 -1.8 -0.9 -3.4 -1.9 -3.4 -2.3 0 -0.4 2.3 -7.1 5 -14.9 4 -11.5 5.4 -14.3 7.1 -14.5 3.8 -0.6 11.7 13.2 15 26.2 1.8 7.2 1.9 24.1 0.2 30.9 -1.2 4.7 -4 6.7 -5.2 3.6z"/>
  <path d="M250.3 394.7 c-6.1 -2.1 -8.8 -1.9 -18.9 0.9 -2.4 0.7 -2.4 0.6 -1.6 -3.8 1 -6.2 2 -7.8 6.5 -10.1 6.5 -3.3 11.2 -3.5 22.8 -1 10.1 2.1 16 2.3 23.6 0.4 2.9 -0.7 2.9 -0.6 2.6 3.8 l-0.3 4.4 -8.8 1.7 c-4.8 0.9 -11.1 2.7 -13.7 3.9 -2.7 1.2 -5.1 2 -5.5 2 -0.3 -0.1 -3.4 -1.1 -6.7 -2.3z"/>
  <path d="M320.8 392.4 c-5.6 -1.3 -13.8 -2.7 -18.1 -3.1 l-8 -0.7 0 -5.1 c0 -7.1 2.6 -16.3 7 -25.4 5.2 -10.8 18.2 -23.8 28.9 -29 10.1 -4.9 18.9 -6.9 30.6 -6.9 10 0 23.6 2.6 23.6 4.5 0 0.6 -3.6 10.3 -7.9 21.6 l-8 20.5 -7.2 0.1 c-14.2 0.1 -24.8 8.4 -26.9 21.2 -0.5 2.7 -1.3 4.3 -2.3 4.4 -0.8 0.1 -6.1 -0.9 -11.8 -2.1z"/>
  <path d="M279.6 367.9 c-5.7 -1.7 -8.5 -3.7 -16.7 -11.4 -8.7 -8.2 -13.5 -10.6 -20.9 -10.6 -3.1 0 -5.6 -0.3 -5.6 -0.6 0 -2.3 3.8 -7.9 6.2 -9.1 3.4 -1.7 13.8 -2 18 -0.4 1.5 0.5 6.2 3.6 10.3 6.8 8.3 6.3 13 8.4 19.5 8.5 3.2 0 4.3 0.4 3.9 1.3 -1.1 2.5 -5.5 13.5 -6.1 15.3 -0.7 2 -2.7 2.1 -8.7 0.2z"/>
  <path d="M294.9 338.8 c-5.1 -3.8 -9.5 -10.1 -13 -18.7 -3.5 -8.6 -8.1 -14 -14.7 -17.2 -2.9 -1.3 -5.1 -2.9 -4.9 -3.5 0.9 -2.7 6 -5.1 10.6 -5.1 9 0.1 17.1 6.1 22.3 16.8 3.5 7.1 7.9 11.8 13.9 14.8 l4.7 2.5 -6.3 6.7 c-3.5 3.7 -6.9 6.8 -7.4 6.8 -0.6 0 -2.9 -1.3 -5.2 -3z"/>
  <path d="M320 318.5 c-4.2 -6.2 -5 -9.3 -5.8 -22.8 -0.8 -14.3 -2.6 -19.3 -8.9 -25.3 -3.3 -3.1 -3.3 -3.4 -1.4 -4.4 2.9 -1.4 8.9 -1.2 12.3 0.4 7.8 4.1 12.4 12.9 13.9 26.7 0.8 7.4 3.8 14.7 7.3 18 3.5 3.3 3.1 4.5 -1.8 6 -2.5 0.7 -6.1 2.1 -8.2 3.2 -2.1 1.1 -4 1.9 -4.2 1.9 -0.2 0 -1.6 -1.7 -3.1 -3.8z"/>
  <path d="M350 309.2 c-1.9 -7.2 -1.2 -14.5 2.6 -25.3 3.9 -11.3 4.4 -16.9 2 -24.7 -1.9 -6.4 -1.9 -6.5 0.5 -6.5 2.9 0 7.2 2.4 9.9 5.3 5.8 6.2 6.8 15 3.3 30.3 -2 8.8 -2.1 9.9 -0.7 15.3 0.8 3.2 1.8 6.5 2.3 7.4 0.5 1.3 -0.8 1.5 -9.1 1.7 l-9.7 0.1 -1 -3.7z"/>
 </g>
 <g fill="#0f463b">
  <path d="M401 467.6 c-8 -2.6 -22.5 -10.1 -32.1 -16.6 -4.5 -3.1 -11.8 -7.9 -16.1 -10.8 -8.9 -6 -20.9 -12.3 -29.9 -15.6 l-6 -2.4 5.8 -5 c7.2 -6.3 9.2 -10.3 10.8 -20.8 1.5 -10.1 3.8 -15.3 8.3 -19.9 4.5 -4.5 10.5 -7.2 18 -7.9 9.5 -0.8 9.5 -0.7 3.3 15.9 -5 13.2 -5.8 14.6 -9.7 17.4 -10.4 7.4 -11.5 22.8 -2.1 32.7 14 14.7 38.6 5.2 38.6 -14.8 0 -2.7 -0.5 -6.4 -1.1 -8.5 -1 -3.3 -0.7 -4.8 2.9 -13.9 2.3 -5.6 4.8 -12.4 5.8 -15 1 -2.8 2.4 -4.9 3.1 -4.9 2 0 10.5 6 13.5 9.5 8.1 9.6 10.3 23.8 5.3 34.6 -1.4 3.1 -4.5 8.1 -6.9 11.2 -2.4 3.1 -4.7 7.3 -5.2 9.3 -1 3.6 -0.7 12.4 0.6 22.7 0.3 2.7 0.2 4.8 -0.3 4.7 -0.4 0 -3.4 -0.8 -6.5 -1.9z"/>
  <path d="M358.3 433.8 c-6.2 -4 -9.1 -13.6 -6.2 -21.1 1.3 -3.7 5.5 -8 9.1 -9.5 2.4 -1 4 -4.2 12.8 -26.4 5.5 -13.9 14.8 -37.2 20.7 -51.9 9.6 -23.8 10.6 -27.1 10.1 -31.2 -0.5 -3.7 0.4 -7.6 4.3 -19.6 l4.8 -15 6.4 -0.1 c5.9 0 6.8 0.3 11.8 4.2 3 2.4 5.4 4.5 5.6 5 0.1 0.4 -2 5.8 -4.8 12 -2.9 6.2 -5.4 12.5 -5.8 14 -0.4 1.6 -2.1 3.5 -4.6 4.9 -4.4 2.5 -4.7 3.2 -12.7 26.4 -3.7 10.5 -16.7 46.7 -27.2 75.3 -2.3 6.2 -2.3 6.3 -0.4 10.2 3.9 8.2 1.5 17.9 -5.6 22.6 -4.6 3.2 -13.4 3.3 -18.2 0.2z"/>
  <path d="M471.3 327 c-1 -2.6 -2.7 -4.2 -4.6 -5 l-3 -1.1 4.5 -4.4 c4.7 -4.5 6.5 -5.4 6.5 -3.1 0 1.9 3.1 4.5 6.3 5.3 3.5 0.9 2.9 2.1 -1.3 3.1 -2.5 0.5 -3.6 1.7 -5 4.9 l-1.8 4.1 -1.6 -3.8z"/>
  <path d="M430 297.6 c-0.7 -0.7 -1.2 -1.7 -1.2 -2.5 0 -1.9 3.3 -2.7 4.9 -1 1.3 1.2 1.3 1.8 0.2 3.1 -1.5 1.9 -2.3 2 -3.9 0.4z"/>
 </g>
 <g fill="#3e1320">
  <path d="M546.5 483.4 c-3.4 -1.4 -3.5 -1.6 -1.7 -3.3 1.2 -1.3 3.5 -1.7 8.6 -1.7 5.6 0 6.9 -0.3 7.2 -1.7 0.4 -1.9 -1.2 -2.9 -8.8 -4.9 -5.5 -1.4 -8.4 -4.2 -8.4 -8.1 0 -4.9 3.7 -8.3 9.8 -9 5 -0.5 12.7 1 12.7 2.7 0 0.4 -0.6 1.5 -1.2 2.5 -1.1 1.4 -1.9 1.5 -5.3 0.6 -5.4 -1.5 -9 -0.5 -8.6 2.4 0.2 1.7 1.6 2.7 6.2 4 6.8 2 8.7 3.4 10 7 1.3 3.4 -0.4 7.5 -4.1 9.6 -3.7 2.1 -11.7 2.3 -16.4 0.1z"/>
  <path d="M570.3 483.8 c0.3 -0.7 3.2 -7.5 6.3 -14.8 l5.8 -13.6 3.9 0 3.8 0 6.3 13.9 c3.4 7.6 6.2 14.3 6.2 14.8 0 0.5 -1.5 0.9 -3.4 0.9 -2.9 0 -3.7 -0.5 -4.9 -3.3 -1.4 -3.3 -1.5 -3.4 -8.1 -3.4 -6.5 0 -6.7 0.1 -8.1 3.4 -1.2 2.8 -2 3.3 -5 3.3 -2.4 0 -3.4 -0.4 -3 -1.2z m20.2 -12.1 c0 -1.9 -3.1 -7.2 -4.2 -7.2 -0.8 0 -4 5.9 -4 7.7 0 0.3 1.8 0.5 4.1 0.5 2.3 0 4.1 -0.5 4.1 -1z"/>
  <path d="M607.8 470.3 c0 -14.4 0 -14.7 2.4 -15.3 3.8 -1 14.5 -0.7 18 0.5 5.2 1.8 7 7.6 3.5 11.4 -1.6 1.7 -1.5 1.9 0.4 3.4 4.9 3.5 3.2 11.6 -2.9 13.7 -1.8 0.6 -7.4 1.1 -12.3 1.1 l-9.1 0 0 -14.7z m19.2 6.9 c1.7 -3.4 0.3 -4.4 -6 -4.4 -4.5 0 -6 0.4 -6 1.4 0 0.8 -0.3 2.1 -0.6 3.1 -1 2.6 11.5 2.4 12.7 -0.1z m-1.3 -13.6 c0 -2.4 -0.4 -2.6 -5.3 -2.9 l-5.4 -0.3 0 3.2 0 3.2 5.4 -0.3 c4.9 -0.3 5.3 -0.5 5.3 -2.9z"/>
  <path d="M647.7 483.1 c-7.7 -4.1 -10.6 -14 -6.1 -21.3 2.9 -4.7 5.7 -6.2 13.3 -7 5.9 -0.6 7.1 -0.4 10.2 1.7 9.3 6.2 9.4 20 0.1 26.1 -4.4 3 -12.4 3.2 -17.5 0.4z m14.1 -6.2 c6.4 -6 2.6 -16.4 -6.1 -16.4 -5.5 0 -9 3.6 -9 9.2 0 3.1 0.6 4.8 2.6 6.7 3.2 3.3 9.3 3.5 12.6 0.5z"/>
  <path d="M678.4 470.2 l0 -14.8 10.1 0 c10.1 0 10.1 0 12.8 3.2 1.5 1.8 2.7 4.4 2.7 6.1 0 3.4 -2.6 9.1 -4.1 9.1 -1.7 0 -1.1 2 2 6.8 l3.2 4.5 -4.1 0 c-3.7 0 -4.3 -0.4 -7 -4.6 -2.3 -3.6 -3.5 -4.6 -5.6 -4.6 -2.7 0 -2.9 0.3 -2.9 4.6 0 4.6 0 4.6 -3.6 4.6 l-3.6 0 0 -14.8z m17.6 -1.7 c1.2 -2 0.9 -5.5 -0.6 -6.9 -0.8 -0.7 -3.5 -1.1 -5.9 -0.9 -4.4 0.3 -4.4 0.3 -4.7 4.6 -0.2 3.4 0.1 4.3 1.5 4.7 2.9 0.8 8.8 -0.1 9.7 -1.5z"/>
  <path d="M731.6 479.5 c0 -4.9 -0.6 -6.7 -5.1 -14 -2.8 -4.6 -4.8 -8.8 -4.5 -9.3 0.3 -0.4 1.8 -0.8 3.5 -0.8 2.5 0 3.4 0.9 6 5.6 1.8 3.2 3.6 5.4 4.1 5.2 0.5 -0.3 2.4 -3.1 4.3 -6.2 3 -5 3.8 -5.6 6.8 -5.6 1.8 0 3.4 0.2 3.4 0.5 0 0.2 -2.6 4.6 -5.5 9.6 -4.6 7.6 -5.6 10.1 -5.9 14.6 -0.3 5.3 -0.4 5.4 -3.6 5.7 l-3.4 0.3 0 -5.6z"/>
  <path d="M768.5 469.7 l0 -15.3 8.2 0 c5.3 0 9.3 0.5 11.3 1.5 6.8 3.5 8.1 10.5 3.2 16.1 l-2.9 3.3 2.9 4 c1.6 2.3 3 4.5 3 5 0 0.4 -1.5 0.8 -3.4 0.8 -2.9 0 -3.9 -0.7 -6.7 -4.7 -2.8 -3.8 -3.8 -4.6 -6.1 -4.3 -2.5 0.3 -2.8 0.8 -3.1 4.7 -0.3 4 -0.5 4.3 -3.4 4.3 l-3 0 0 -15.3z m16.2 -0.6 c2.5 -1.7 3 -5.4 1 -7.4 -0.7 -0.7 -3.5 -1.2 -6.1 -1.2 l-4.9 0 0 4.4 c0 2.5 0.3 4.8 0.7 5.1 1.2 1.3 7 0.7 9.3 -0.9z"/>
  <path d="M801.1 484.6 c-0.2 -0.2 -0.3 -7 -0.1 -14.8 l0.3 -14.4 3.1 0 3 0 0 14.8 0 14.8 -2.9 0 c-1.6 0 -3.2 -0.2 -3.4 -0.4z"/>
  <path d="M822.4 484.3 c-0.4 -0.3 -0.7 -5.8 -0.7 -12.3 l0 -11.6 -4.1 0 c-3.9 0 -4.1 -0.2 -4.1 -3.1 l0 -3.1 12.3 0 12.3 0 0 3.1 c0 3 -0.2 3.1 -4.6 3.1 l-4.6 0 0 12.3 0 12.3 -2.9 0 c-1.6 0 -3.3 -0.3 -3.6 -0.7z"/>
  <path d="M844.2 470.2 l0 -14.8 3 0 c2.8 0 3.6 0.9 8 8.2 2.7 4.5 5.2 8.2 5.6 8.2 0.4 0 3 -3.7 5.5 -8.2 4.2 -7.2 5.1 -8.2 7.7 -8.2 2.6 0 2.9 0.4 3.5 4.3 0.3 2.5 0.5 9 0.3 14.6 l-0.3 10.2 -3.3 0.3 -3.4 0.3 0 -7.2 c0 -4 -0.4 -7.3 -0.9 -7.3 -0.4 0 -2.6 2.6 -4.6 5.7 l-3.9 5.7 -2.3 -2.3 c-1.3 -1.1 -3.3 -3.8 -4.3 -5.7 -3.1 -5.6 -4.5 -4.5 -4.5 3.7 l0 7.2 -3.1 0 -3.1 0 0 -14.8z"/>
  <path d="M892.3 483.2 c-5.1 -2.6 -8.2 -7.7 -8.2 -13.5 0 -8.8 6.9 -15.3 16.2 -15.3 8.9 0 15 5.1 16.2 13.5 0.7 5.8 -2.8 12.7 -7.8 15.3 -4.5 2.4 -11.8 2.4 -16.4 0z m14.2 -6.8 c1.2 -1.3 2.5 -4 2.8 -5.9 1.4 -8.3 -9.5 -13.5 -15.5 -7.5 -1.9 1.8 -2.6 3.6 -2.6 6.7 0 5.6 3.5 9.2 9 9.2 2.9 0 4.6 -0.7 6.2 -2.5z"/>
  <path d="M942.4 482.8 c-5.3 -3.7 -7.4 -7.2 -7.5 -12.7 -0.1 -10.4 5 -15.2 16.4 -15.2 6.3 0 7.8 0.3 9.7 2.3 l2.3 2.4 -2 1.9 c-1.8 1.6 -2.4 1.7 -4 0.5 -3.3 -2.5 -10 -1.8 -12.9 1.2 -3.6 3.9 -3.4 10 0.5 13.4 2.7 2.3 3.7 2.5 10.1 2.1 8.4 -0.4 9.9 1 4.6 4.3 -4.8 2.9 -12.8 2.8 -17.2 -0.2z"/>
  <path d="M964.9 484.6 c0 -0.2 2.9 -7 6.4 -15 6.2 -14.1 6.5 -14.7 9.7 -15 2.9 -0.3 3.4 0.1 5.6 4.6 2.8 5.3 10.9 24.5 10.9 25.3 0 0.4 -1.5 0.6 -3.4 0.6 -2.9 0 -3.7 -0.5 -4.9 -3.3 -1.3 -3.3 -1.7 -3.4 -7.8 -3.7 l-6.4 -0.3 -1.7 3.7 c-1.4 3.1 -2.3 3.6 -5.1 3.6 -1.8 0 -3.4 -0.2 -3.4 -0.4z m20.5 -12.3 c0 -1.5 -3.3 -7.8 -4.1 -7.8 -0.8 0 -4.1 6.2 -4.1 7.8 0 0.2 1.8 0.4 4.1 0.4 2.3 0 4.1 -0.2 4.1 -0.4z"/>
  <path d="M1002.8 469.7 l0 -15.3 7.7 0 c4.3 0 9.2 0.6 11.2 1.4 7.2 3 8.9 10.4 3.8 16.2 l-2.9 3.3 2.9 4 c1.6 2.3 3 4.5 3 5 0 0.4 -1.5 0.8 -3.5 0.8 -3.1 0 -3.9 -0.6 -6.4 -4.6 -2.3 -3.6 -3.5 -4.6 -5.5 -4.6 -2.9 0 -4 1.9 -4 7 0 1.8 -0.6 2.3 -3.1 2.3 l-3.1 0 0 -15.3z m17.2 -1.3 c1.5 -1.2 1.6 -5 0 -6.7 -0.7 -0.7 -3.2 -1.2 -5.6 -1.2 l-4.4 0 0 4.4 c0 2.5 0.3 4.8 0.7 5.1 0.8 0.9 7.6 -0.2 9.3 -1.6z"/>
  <path d="M1035.2 484.3 c-1 -0.9 -0.9 -27.7 0.1 -28.2 0.4 -0.2 1.9 -0.7 3.6 -1.1 l2.8 -0.6 0 15.3 0 15.3 -2.9 0 c-1.6 0 -3.3 -0.3 -3.6 -0.7z"/>
  <path d="M1049.9 470.7 c0 -16.7 -0.2 -16.4 10.7 -16.4 12 0 16.9 4.1 14 11.7 -1 2.7 -0.9 3.4 0.8 5.2 2.3 2.5 2.7 5.7 0.9 8.9 -1.8 3.4 -7.3 4.9 -17.3 4.9 l-9.2 0 0 -14.3z m20.1 5.9 c0.9 -3.1 -1.9 -4.9 -8 -4.9 l-4.9 0 0 3.6 0 3.6 6 0 c5.3 0 6.1 -0.3 6.9 -2.3z m-2.1 -13.1 c0 -2.4 -0.4 -2.6 -5.3 -2.9 l-5.4 -0.3 0 3.2 0 3.2 5.4 -0.3 c4.9 -0.3 5.3 -0.5 5.3 -2.9z"/>
  <path d="M1083.6 470.4 l0 -14.7 3.2 -0.7 c1.7 -0.3 6.9 -0.6 11.3 -0.6 l8.1 0 0 3.1 0 3.1 -7.7 0 -7.7 0 0 3.1 0 3.1 6.7 0 6.7 0 0 3.1 c0 3.1 -0.1 3.1 -5.4 3.1 -5.6 0 -7.9 1.2 -7.9 4.3 0 1.5 1.1 1.8 8 2 7.7 0.3 7.9 0.4 7.9 2.9 l0 2.6 -11.5 0.3 -11.6 0.3 0 -14.7z"/>
  <path d="M1113.3 469.7 l0 -15.3 3.1 0 c2.6 0 4 1.3 9.9 8.7 l7 8.7 0.5 -8.4 0.5 -8.5 3.4 -0.3 3.3 -0.3 0 15.3 0 15.5 -2.8 0 c-2.4 0 -4.1 -1.5 -9.3 -8.2 -3.6 -4.5 -7 -8.2 -7.5 -8.2 -0.5 0 -0.9 3.7 -0.9 8.2 l0 8.2 -3.6 0 -3.6 0 0 -15.3z"/>
  <path d="M1155.5 483.3 c-5.3 -2.7 -7.9 -7.1 -7.9 -13.8 0 -6.8 2.3 -10.5 7.8 -13.3 5.1 -2.7 13.1 -2.4 17.4 0.5 12.9 8.6 6.9 28.3 -8.7 28.3 -2.9 0 -6.8 -0.8 -8.6 -1.7z m13.2 -5.7 c7.3 -5.5 3.9 -17.1 -4.9 -17.1 -8.6 0.1 -12.4 8.7 -6.9 15.2 2 2.5 3.5 3.2 6.3 3.2 2.1 0 4.5 -0.6 5.4 -1.3z"/>
  <path d="M1119.4 449.4 c0 -4 4.2 -5.4 8.5 -3.1 1.2 0.7 3.5 1.1 5.1 0.9 3 -0.3 3.6 0.7 1.5 2.8 -1.7 1.7 -5.9 1.5 -8.3 -0.5 -1.8 -1.7 -1.9 -1.7 -3.3 0 -1.6 2.3 -3.6 2.3 -3.6 -0.1z"/>
 </g>
</svg>