<svg xmlns="http://www.w3.org/2000/svg" style="display: none">
    <defs>
        <symbol id="fbook" viewBox="0 0 35 35">
            <path fill="#cccccc"
                d="M32 16c0-8.839-7.167-16-16-16C7.161 0 0 7.161 0 16c0 7.984 5.849 14.604 13.5 15.803V20.626H9.437v-4.625H13.5v-3.527c0-4.009 2.385-6.223 6.041-6.223c1.751 0 3.584.312 3.584.312V10.5h-2.021c-1.984 0-2.604 1.235-2.604 2.5v3h4.437l-.713 4.625H18.5v11.177C26.145 30.603 32 23.983 32 15.999z" />
        </symbol>
        <symbol id="lkdin" viewBox="0 0 24 24">
            <g fill="#cccccc">
                <path
                    d="M15 11.13v3.697h-2.143v-3.45c0-.866-.31-1.457-1.086-1.457c-.592 0-.945.398-1.1.784c-.056.138-.071.33-.071.522v3.601H8.456s.029-5.842 0-6.447H10.6v.913l-.014.021h.014v-.02c.285-.44.793-1.066 1.932-1.066c1.41 0 2.468.922 2.468 2.902M6.213 5.271C5.48 5.271 5 5.753 5 6.385c0 .62.466 1.115 1.185 1.115h.014c.748 0 1.213-.496 1.213-1.115c-.014-.632-.465-1.114-1.199-1.114m-1.086 9.556h2.144V8.38H5.127z" />
                <path
                    d="M10 18a8 8 0 1 0 0-16a8 8 0 0 0 0 16m0 2C4.477 20 0 15.523 0 10S4.477 0 10 0s10 4.477 10 10s-4.477 10-10 10" />
            </g>
        </symbol>
        <symbol id="mail" viewBox="0 0 24 24">
            <path fill="currentColor"
                d="M5 5h13a3 3 0 0 1 3 3v9a3 3 0 0 1-3 3H5a3 3 0 0 1-3-3V8a3 3 0 0 1 3-3m0 1c-.5 0-.94.17-1.28.47l7.78 5.03l7.78-5.03C18.94 6.17 18.5 6 18 6zm6.5 6.71L3.13 7.28C3.05 7.5 3 7.75 3 8v9a2 2 0 0 0 2 2h13a2 2 0 0 0 2-2V8c0-.25-.05-.5-.13-.72z" />
        </symbol>
        <symbol id="messanger" viewBox="0 0 24 24">
            <path fill="currentColor"
                d="M2 16.59L5.59 13H15a2 2 0 0 0 2-2V6a2 2 0 0 0-2-2H4a2 2 0 0 0-2 2zM2 18H1V6a3 3 0 0 1 3-3h11a3 3 0 0 1 3 3v5a3 3 0 0 1-3 3H6zm19 2.59V10a2 2 0 0 0-2-2V7a3 3 0 0 1 3 3v12h-1l-4-4H8c-1.24 0-2.3-.75-2.76-1.82l.8-.8C6.21 16.3 7 17 8 17h9.41z" />
        </symbol>
        <symbol id="instagram" viewBox="0 0 24 24">
            <path fill="#cccccc"
                d="M13 10a3 3 0 1 1-6 0q.001-.257.049-.5H6v3.997c0 .278.225.503.503.503h6.995a.503.503 0 0 0 .502-.503V9.5h-1.049q.048.243.049.5m-3 2a2 2 0 1 0-.001-4.001A2 2 0 0 0 10 12m2.4-4.1h1.199a.3.3 0 0 0 .301-.3V6.401a.3.3 0 0 0-.301-.301H12.4a.3.3 0 0 0-.301.301V7.6c.001.165.136.3.301.3M10 .4A9.6 9.6 0 0 0 .4 10a9.6 9.6 0 0 0 9.6 9.6a9.6 9.6 0 0 0 9.6-9.6A9.6 9.6 0 0 0 10 .4m5 13.489C15 14.5 14.5 15 13.889 15H6.111C5.5 15 5 14.5 5 13.889V6.111C5 5.5 5.5 5 6.111 5h7.778C14.5 5 15 5.5 15 6.111z" />
        </symbol>
        <symbol id="youtube" viewBox="0 0 24 24">
            <path fill="#cccccc"
                d="M12 0C5.376 0 0 5.376 0 12s5.376 12 12 12s12-5.376 12-12S18.624 0 12 0m0 19.104c-3.924 0-7.104-3.18-7.104-7.104S8.076 4.896 12 4.896s7.104 3.18 7.104 7.104s-3.18 7.104-7.104 7.104m0-13.332c-3.432 0-6.228 2.796-6.228 6.228S8.568 18.228 12 18.228s6.228-2.796 6.228-6.228S15.432 5.772 12 5.772M9.684 15.54V8.46L15.816 12z" />
        </symbol>
        <symbol id="star" viewBox="0 0 24 24">
            <path fill="#664b3c"
                d="M12.86 10.44L11 6.06l-1.86 4.39l-4.75.41L8 14l-1.08 4.63L11 16.17l4.09 2.46L14 14l3.61-3.14zm3.73 10.26L11 17.34L5.42 20.7l1.46-6.35l-4.92-4.28l6.49-.57l2.55-6l2.55 6l6.49.57l-4.92 4.27z" />
        </symbol>
        <symbol id='arrow_left' viewBox="0 0 24 24">
            <path fill="none" stroke="#666666" stroke-linecap="round" stroke-linejoin="round"
                stroke-width="1.5" d="M20 12H4m0 0l6-6m-6 6l6 6" />
        </symbol>
        <symbol id='filter' viewBox="0 0 24 24">
            <path fill="#333333"
                d="M14.037 20.937a1 1 0 0 1-.518-.145l-3.334-2a2.55 2.55 0 0 1-1.233-2.176v-4.525a1.53 1.53 0 0 0-.284-.891L4.013 4.658a1.01 1.01 0 0 1 .822-1.6h14.33a1.009 1.009 0 0 1 .822 1.6L15.332 11.2a1.53 1.53 0 0 0-.285.891v7.834a1.013 1.013 0 0 1-1.01 1.012M4.835 4.063l4.647 6.557a2.5 2.5 0 0 1 .47 1.471v4.524a1.54 1.54 0 0 0 .747 1.318l3.334 2l.014-7.843a2.5 2.5 0 0 1 .471-1.471l4.654-6.542Z" />
        </symbol>
        <symbol id='hamburger' viewBox="0 0 25 25">
            <path fill="none" stroke="#fff8e6" stroke-width="2" stroke-linecap="round"
                stroke-linejoin="round"
                d="M3 6.001h18m-18 6h18m-18 6h18" />
        </symbol>
        <symbol id='clock' viewBox="0 0 25 25">
            <path fill="#333333"
                d="M11.5 3a9.5 9.5 0 0 1 9.5 9.5a9.5 9.5 0 0 1-9.5 9.5A9.5 9.5 0 0 1 2 12.5A9.5 9.5 0 0 1 11.5 3m0 1A8.5 8.5 0 0 0 3 12.5a8.5 8.5 0 0 0 8.5 8.5a8.5 8.5 0 0 0 8.5-8.5A8.5 8.5 0 0 0 11.5 4M11 7h1v5.42l4.7 2.71l-.5.87l-5.2-3z" />
        </symbol>
        <symbol id='date' viewBox="0 0 25 25">
            <path fill="#666666"
                d="M14.5 16h-13C.67 16 0 15.33 0 14.5v-12C0 1.67.67 1 1.5 1h13c.83 0 1.5.67 1.5 1.5v12c0 .83-.67 1.5-1.5 1.5M1.5 2c-.28 0-.5.22-.5.5v12c0 .28.22.5.5.5h13c.28 0 .5-.22.5-.5v-12c0-.28-.22-.5-.5-.5z" />
            <path fill="#666666"
                d="M4.5 4c-.28 0-.5-.22-.5-.5v-3c0-.28.22-.5.5-.5s.5.22.5.5v3c0 .28-.22.5-.5.5m7 0c-.28 0-.5-.22-.5-.5v-3c0-.28.22-.5.5-.5s.5.22.5.5v3c0 .28-.22.5-.5.5m4 2H.5C.22 6 0 5.78 0 5.5S.22 5 .5 5h15c.28 0 .5.22.5.5s-.22.5-.5.5" />
        </symbol>
        <symbol id='arrow-right' viewBox="0 0 25 25">
            <path fill="#cccccc"
                d="M12.003 21q-1.866 0-3.51-.708q-1.643-.709-2.859-1.924t-1.925-2.856T3 12.003t.709-3.51Q4.417 6.85 5.63 5.634t2.857-1.925T11.997 3t3.51.709q1.643.708 2.859 1.922t1.925 2.857t.709 3.509t-.708 3.51t-1.924 2.859t-2.856 1.925t-3.509.709m1.409-8.5l-1.766 1.766q-.14.14-.13.334q.009.194.15.335q.14.14.347.14t.34-.14l2.37-2.37q.243-.242.243-.565t-.243-.565l-2.388-2.389q-.14-.14-.335-.14t-.334.14t-.141.348t.14.34l1.747 1.766H9q-.213 0-.356.144t-.144.357t.144.356T9 12.5z" />
        </symbol>
        <symbol id='chef' viewBox="0 0 25 25">
            <path fill="currentColor"
                d="M10.472 13.299q.144-.144.144-.357v-2.826q0-.213-.144-.357t-.357-.143t-.356.143t-.143.357v2.826q0 .213.143.357q.144.143.357.143t.356-.143m-4.645-.972q-1.035-.517-1.68-1.48Q3.5 9.885 3.5 8.725q0-1.548 1.086-2.636Q5.67 5 7.219 5q.295 0 .603.05t.603.125l.173.039l.096-.155q.548-.909 1.404-1.484T12 3t1.902.575t1.423 1.484l.096.154l.154-.038q.286-.075.572-.125t.595-.05q1.568 0 2.663 1.088T20.5 8.744q0 1.16-.637 2.113q-.636.953-1.69 1.466v4.908H5.827zm8.434.972q.143-.144.143-.357v-2.826q0-.213-.144-.357q-.144-.143-.357-.143t-.356.143t-.143.357v2.826q0 .213.144.357t.357.143t.356-.143M6.827 16.23h10.346v-4.552l.812-.396q.707-.344 1.12-1.018t.414-1.482q0-1.169-.828-1.976T16.704 6q-.256 0-.49.04q-.235.04-.466.116l-.79.228l-.487-.819q-.408-.69-1.047-1.128T12.01 4t-1.415.438t-1.047 1.128l-.487.819l-.815-.23q-.23-.068-.468-.112T7.29 6q-1.16 0-1.975.803T4.5 8.768q0 .803.411 1.473t1.124 1.042l.792.396zm-1 1h1v2.153q0 .27.173.443t.442.173h9.116q.269 0 .442-.173t.173-.443V17.23h1v2.153q0 .667-.475 1.141t-1.14.475H7.442q-.666 0-1.14-.475t-.475-1.14zm6.192-1" />
        </symbol>
        <symbol id='close' viewBox="0 0 40 40">
            <path fill="none" stroke="#e3d063" stroke-linecap="round" stroke-linejoin="round"
                stroke-width="2" d="M2 30L30 2m0 28L2 2" />
        </symbol>
        <symbol id='litleArrowDown' viewBox="0 0 30 30">
            <path fill="#664b3c"
                d="M8.037 11.166L14.5 22.36c.825 1.43 2.175 1.43 3 0l6.463-11.195c.826-1.43.15-2.598-1.5-2.598H9.537c-1.65 0-2.326 1.17-1.5 2.6z" />
        </symbol>
    </defs>
</svg>      