<svg xmlns="http://www.w3.org/2000/svg" style="display: none">
    <defs>
        <symbol id="fbook" viewBox="0 0 35 35">
            <path fill="#cccccc"
                d="M32 16c0-8.839-7.167-16-16-16C7.161 0 0 7.161 0 16c0 7.984 5.849 14.604 13.5 15.803V20.626H9.437v-4.625H13.5v-3.527c0-4.009 2.385-6.223 6.041-6.223c1.751 0 3.584.312 3.584.312V10.5h-2.021c-1.984 0-2.604 1.235-2.604 2.5v3h4.437l-.713 4.625H18.5v11.177C26.145 30.603 32 23.983 32 15.999z" />
        </symbol>
        <symbol id="lkdin" viewBox="0 0 24 24">
            <g fill="#cccccc">
                <path
                    d="M15 11.13v3.697h-2.143v-3.45c0-.866-.31-1.457-1.086-1.457c-.592 0-.945.398-1.1.784c-.056.138-.071.33-.071.522v3.601H8.456s.029-5.842 0-6.447H10.6v.913l-.014.021h.014v-.02c.285-.44.793-1.066 1.932-1.066c1.41 0 2.468.922 2.468 2.902M6.213 5.271C5.48 5.271 5 5.753 5 6.385c0 .62.466 1.115 1.185 1.115h.014c.748 0 1.213-.496 1.213-1.115c-.014-.632-.465-1.114-1.199-1.114m-1.086 9.556h2.144V8.38H5.127z" />
                <path
                    d="M10 18a8 8 0 1 0 0-16a8 8 0 0 0 0 16m0 2C4.477 20 0 15.523 0 10S4.477 0 10 0s10 4.477 10 10s-4.477 10-10 10" />
            </g>
        </symbol>
        <symbol id="mail" viewBox="0 0 24 24">
            <path fill="currentColor"
                d="M5 5h13a3 3 0 0 1 3 3v9a3 3 0 0 1-3 3H5a3 3 0 0 1-3-3V8a3 3 0 0 1 3-3m0 1c-.5 0-.94.17-1.28.47l7.78 5.03l7.78-5.03C18.94 6.17 18.5 6 18 6zm6.5 6.71L3.13 7.28C3.05 7.5 3 7.75 3 8v9a2 2 0 0 0 2 2h13a2 2 0 0 0 2-2V8c0-.25-.05-.5-.13-.72z" />
        </symbol>
        <symbol id="messanger" viewBox="0 0 24 24">
            <path fill="currentColor"
                d="M2 16.59L5.59 13H15a2 2 0 0 0 2-2V6a2 2 0 0 0-2-2H4a2 2 0 0 0-2 2zM2 18H1V6a3 3 0 0 1 3-3h11a3 3 0 0 1 3 3v5a3 3 0 0 1-3 3H6zm19 2.59V10a2 2 0 0 0-2-2V7a3 3 0 0 1 3 3v12h-1l-4-4H8c-1.24 0-2.3-.75-2.76-1.82l.8-.8C6.21 16.3 7 17 8 17h9.41z" />
        </symbol>
        <symbol id="instagram" viewBox="0 0 24 24">
            <path fill="#cccccc"
                d="M13 10a3 3 0 1 1-6 0q.001-.257.049-.5H6v3.997c0 .278.225.503.503.503h6.995a.503.503 0 0 0 .502-.503V9.5h-1.049q.048.243.049.5m-3 2a2 2 0 1 0-.001-4.001A2 2 0 0 0 10 12m2.4-4.1h1.199a.3.3 0 0 0 .301-.3V6.401a.3.3 0 0 0-.301-.301H12.4a.3.3 0 0 0-.301.301V7.6c.001.165.136.3.301.3M10 .4A9.6 9.6 0 0 0 .4 10a9.6 9.6 0 0 0 9.6 9.6a9.6 9.6 0 0 0 9.6-9.6A9.6 9.6 0 0 0 10 .4m5 13.489C15 14.5 14.5 15 13.889 15H6.111C5.5 15 5 14.5 5 13.889V6.111C5 5.5 5.5 5 6.111 5h7.778C14.5 5 15 5.5 15 6.111z" />
        </symbol>
        <symbol id="newsletter" viewBox="0 0 24 24">
            <path fill="currentColor"
                d="M12 .64L8.23 3H5v2L2.97 6.29C2.39 6.64 2 7.27 2 8v10a2 2 0 0 0 2 2h16c1.11 0 2-.89 2-2V8c0-.73-.39-1.36-.97-1.71L19 5V3h-3.23M7 5h10v4.88L12 13L7 9.88M8 6v1.5h8V6M5 7.38v1.25L4 8m15-.62L20 8l-1 .63M8 8.5V10h8V8.5Z" />
        </symbol>
        <symbol id="school_fill" viewBox="0 0 24 24">
            <path fill="currentColor"
                d="M12 3L1 9l11 6l9-4.91V17h2V9M5 13.18v4L12 21l7-3.82v-4L12 17z" />
        </symbol>
        <symbol id="school_non_fill" viewBox="0 0 24 24" fill="none" stroke="currentColor"
            stroke-width="1" stroke-linecap="round" stroke-linejoin="round">
            <path d="M22 10v6M2 10l10-5 10 5-10 5z" />
            <path d="M6 12v5c3 3 9 3 12 0v-5" />
        </symbol>
        <symbol id="user" viewBox="0 0 24 24">
            <path fill="currentColor"
                d="M11.5 14c4.14 0 7.5 1.57 7.5 3.5V20H4v-2.5c0-1.93 3.36-3.5 7.5-3.5m6.5 3.5c0-1.38-2.91-2.5-6.5-2.5S5 16.12 5 17.5V19h13zM11.5 5A3.5 3.5 0 0 1 15 8.5a3.5 3.5 0 0 1-3.5 3.5A3.5 3.5 0 0 1 8 8.5A3.5 3.5 0 0 1 11.5 5m0 1A2.5 2.5 0 0 0 9 8.5a2.5 2.5 0 0 0 2.5 2.5A2.5 2.5 0 0 0 14 8.5A2.5 2.5 0 0 0 11.5 6" />
        </symbol>
        <symbol id="youtube" viewBox="0 0 24 24">
            <path fill="#cccccc"
                d="M12 0C5.376 0 0 5.376 0 12s5.376 12 12 12s12-5.376 12-12S18.624 0 12 0m0 19.104c-3.924 0-7.104-3.18-7.104-7.104S8.076 4.896 12 4.896s7.104 3.18 7.104 7.104s-3.18 7.104-7.104 7.104m0-13.332c-3.432 0-6.228 2.796-6.228 6.228S8.568 18.228 12 18.228s6.228-2.796 6.228-6.228S15.432 5.772 12 5.772M9.684 15.54V8.46L15.816 12z" />
        </symbol>
        <symbol id="lock" viewBox="0 0 24 24">
            <path fill="currentColor"
                d="M16 8a3 3 0 0 1 3 3v8a3 3 0 0 1-3 3H7a3 3 0 0 1-3-3v-8a3 3 0 0 1 3-3V6.5C7 4 9 2 11.5 2S16 4 16 6.5zM7 9a2 2 0 0 0-2 2v8a2 2 0 0 0 2 2h9a2 2 0 0 0 2-2v-8a2 2 0 0 0-2-2zm8-1V6.5A3.5 3.5 0 0 0 11.5 3A3.5 3.5 0 0 0 8 6.5V8zm-3.5 6a1.5 1.5 0 0 0-1.5 1.5a1.5 1.5 0 0 0 1.5 1.5a1.5 1.5 0 0 0 1.5-1.5a1.5 1.5 0 0 0-1.5-1.5m0-1a2.5 2.5 0 0 1 2.5 2.5a2.5 2.5 0 0 1-2.5 2.5A2.5 2.5 0 0 1 9 15.5a2.5 2.5 0 0 1 2.5-2.5" />
        </symbol>
        <symbol id="star" viewBox="0 0 24 24">
            <path fill="#333333"
                d="M12.86 10.44L11 6.06l-1.86 4.39l-4.75.41L8 14l-1.08 4.63L11 16.17l4.09 2.46L14 14l3.61-3.14zm3.73 10.26L11 17.34L5.42 20.7l1.46-6.35l-4.92-4.28l6.49-.57l2.55-6l2.55 6l6.49.57l-4.92 4.27z" />
        </symbol>
        <symbol id="starFill" viewBox="0 0 24 24">
            <path fill="#eab308"
                d="M12 17.27L18.18 21l-1.64-7.03L22 9.24l-7.19-.62L12 2L9.19 8.62L2 9.24l5.45 4.73L5.82 21z" />
        </symbol>
        <symbol id='fbook_circular' viewBox="0 0 512 512">
            <path fill="#1877F2"
                d="M504 256C504 119 393 8 256 8S8 119 8 256c0 123.78 90.69 226.38 209.25 245V327.69h-63V256h63v-54.64c0-62.15 37-96.48 93.67-96.48 27.14 0 55.52 4.84 55.52 4.84v61h-31.28c-30.8 0-40.41 19.12-40.41 38.73V256h68.78l-11 71.69h-57.78V501C413.31 482.38 504 379.78 504 256z" />
            <path fill="#ffffff"
                d="M315.78 327.69l11-71.69h-68.78V201.36c0-19.61 9.61-38.73 40.41-38.73H329.7v-61s-28.38-4.84-55.52-4.84c-56.67 0-93.67 34.33-93.67 96.48V256h-63v71.69h63V501c22.84 3.58 46.12 3.58 68.75 0V327.69h66.52z" />
        </symbol>
        <symbol id='google_circular' viewBox="0 0 24 24">
            <path
                d="M22.56 12.25c0-.78-.07-1.53-.2-2.25H12v4.26h5.92c-.26 1.37-1.04 2.53-2.21 3.31v2.77h3.57c2.08-1.92 3.28-4.74 3.28-8.09z"
                fill="#4285F4" />
            <path
                d="M12 23c2.97 0 5.46-.98 7.28-2.66l-3.57-2.77c-.98.66-2.23 1.06-3.71 1.06-2.86 0-5.29-1.93-6.16-4.53H2.18v2.84C3.99 20.53 7.7 23 12 23z"
                fill="#34A853" />
            <path
                d="M5.84 14.09c-.22-.66-.35-1.36-.35-2.09s.13-1.43.35-2.09V7.07H2.18C1.43 8.55 1 10.22 1 12s.43 3.45 1.18 4.93l2.85-2.21-1.19-.63z"
                fill="#FBBC05" />
            <path
                d="M12 5.38c1.62 0 3.06.56 4.21 1.64l3.15-3.15C17.45 2.09 14.97 1 12 1 7.7 1 3.99 3.47 2.18 7.07l3.66 2.84c.87-2.6 3.3-4.53 6.16-4.53z"
                fill="#EA4335" />
        </symbol>
        <symbol id='apple_logo' viewBox="0 0 24 24">
            <path fill="#333333"
                d="M18.71 19.5c-.83 1.24-1.71 2.45-3.05 2.47c-1.34.03-1.77-.79-3.29-.79c-1.53 0-2 .77-3.27.82c-1.31.05-2.3-1.32-3.14-2.53C4.25 17 2.94 12.45 4.7 9.39c.87-1.52 2.43-2.48 4.12-2.51c1.28-.02 2.5.87 3.29.87c.78 0 2.26-1.07 3.81-.91c.65.03 2.47.26 3.64 1.98c-.09.06-2.17 1.28-2.15 3.81c.03 3.02 2.65 4.03 2.68 4.04c-.03.07-.42 1.44-1.38 2.83M13 3.5c.73-.83 1.94-1.46 2.94-1.5c.13 1.17-.34 2.35-1.04 3.19c-.69.85-1.83 1.51-2.95 1.42c-.15-1.15.41-2.35 1.05-3.11" />
        </symbol>
        <symbol id='bell' viewBox="0 0 256 256">
            <path fill="#666666"
                d="M220.07 176.94C214.41 167.2 206 139.73 206 104a78 78 0 1 0-156 0c0 35.74-8.42 63.2-14.08 72.94A14 14 0 0 0 48 198h42.48a38 38 0 0 0 75 0H208a14 14 0 0 0 12.06-21.06ZM128 218a26 26 0 0 1-25.29-20h50.58A26 26 0 0 1 128 218m81.71-33a1.9 1.9 0 0 1-1.7 1H48a1.9 1.9 0 0 1-1.7-1a2 2 0 0 1 0-2c7.57-13 15.7-43.31 15.7-79a66 66 0 1 1 132 0c0 35.68 8.14 65.95 15.71 79a2 2 0 0 1 0 2" />
        </symbol>
        <symbol id='search' viewBox="0 0 24 24">
            <path fill="#666666"
                d="M13.73 14.436a6.5 6.5 0 1 1 .707-.707l3.416 3.418a.5.5 0 0 1-.637.764l-.07-.057zm-.71-.71q.385-.32.707-.706a5.5 5.5 0 1 0-.707.707" />
        </symbol>
        <symbol id='arrow_left' viewBox="0 0 24 24">
            <path fill="none" stroke="#666666" stroke-linecap="round" stroke-linejoin="round"
                stroke-width="1.5" d="M20 12H4m0 0l6-6m-6 6l6 6" />
        </symbol>
        <symbol id='settings' viewBox="0 0 24 24">
            <path fill="#666666" fill-rule="evenodd"
                d="M16 12c0 2.21-1.79 4-4 4s-4-1.79-4-4s1.79-4 4-4s4 1.79 4 4m-1 0c0 1.66-1.34 3-3 3s-3-1.34-3-3s1.34-3 3-3s3 1.34 3 3"
                clip-rule="evenodd" />
            <path fill="#666666" fill-rule="evenodd"
                d="M9 3c0-1.66 1.34-3 3-3s3 1.34 3 3v.16c0 .4.32.66.661.66c.16 0 .33-.06.46-.19l.12-.12c.58-.59 1.35-.88 2.12-.88a3 3 0 0 1 2.12 5.12l-.12.12c-.41.42-.12 1.13.47 1.13h.16c1.66 0 3 1.34 3 3s-1.34 3-3 3h-.16c-.59 0-.891.71-.47 1.13l.12.12a3 3 0 0 1 0 4.24c-.58.59-1.35.88-2.12.88c-.771 0-1.53-.29-2.12-.88l-.12-.12a.66.66 0 0 0-1.121.47V21c0 1.66-1.34 3-3 3s-3-1.34-3-3v-.16c0-.4-.32-.66-.661-.66c-.16 0-.33.06-.46.19l-.12.12c-.58.59-1.35.88-2.12.88a3 3 0 0 1-2.12-5.12l.12-.12c.41-.42.12-1.13-.47-1.13h-.16c-1.66 0-3-1.34-3-3s1.34-3 3-3h.16c.59 0 .891-.71.47-1.13l-.12-.12a3 3 0 0 1 0-4.24c.58-.59 1.35-.88 2.12-.88c.771 0 1.53.29 2.12.88l.12.12A.66.66 0 0 0 9 3.16zm5 0c0-1.1-.901-2-2-2s-2 .89-2 1.99v.16c0 .91-.741 1.66-1.66 1.66c-.44 0-.861-.18-1.17-.49l-.12-.12a1.983 1.983 0 0 0-2.82 0a2 2 0 0 0 0 2.83l.12.12c.48.48.621 1.19.36 1.81c-.25.62-.861 1.02-1.53 1.02h-.16c-1.1 0-2.01.92-2.01 2.02s.912 1.98 2.01 1.98h.16c.671 0 1.27.4 1.53 1.02s.12 1.33-.36 1.81l-.12.12a2 2 0 0 0 0 2.83a1.983 1.983 0 0 0 2.82 0l.12-.12c.32-.32.731-.49 1.17-.49c.911 0 1.66.74 1.66 1.66v.16c0 1.1.901 2.03 2 2.03s2-.93 2-2.03v-.16c0-.47.18-.9.52-1.21a1.656 1.656 0 0 1 2.31.04l.12.12a1.983 1.983 0 0 0 2.82 0c.781-.78.781-2.05 0-2.83l-.12-.12c-.48-.48-.62-1.19-.36-1.81c.25-.62.861-1 1.53-1h.16c1.1 0 2.01-.9 2.01-2s-.912-2-2.01-2h-.16c-.671 0-1.27-.42-1.53-1.04s-.12-1.33.36-1.81l.12-.12a1.983 1.983 0 0 0 0-2.82a1.983 1.983 0 0 0-2.82 0l-.12.12c-.32.32-.731.49-1.17.49c-.911 0-1.66-.74-1.66-1.66z"
                clip-rule="evenodd" />
        </symbol>
        <symbol id='home' viewBox="0 0 48 48">
            <path fill="none" stroke="currentColor" stroke-linecap="round" stroke-linejoin="round"
                stroke-width="2"
                d="M41.973 20.705L25.945 6.409a2.92 2.92 0 0 0-3.89 0L6.027 20.705c-1.074.958-.396 2.737 1.044 2.737h2.05v16.617a2.275 2.275 0 0 0 2.275 2.274h25.208a2.275 2.275 0 0 0 2.275-2.274V23.44h2.05c1.44 0 2.118-1.78 1.044-2.737z" />
        </symbol>
        <symbol id='networking' viewBox="0 0 256 256">
            <path fill="currentColor"
                d="M237 147.44a4 4 0 0 1-5.48-1.4c-8.33-14-20.93-22-34.56-22a4 4 0 0 1-1.2-.2a37 37 0 0 1-3.8.2a4 4 0 0 1 0-8a28 28 0 1 0-27.12-35a4 4 0 0 1-7.75-2a36 36 0 1 1 54 39.48c10.81 3.85 20.51 12 27.31 23.48a4 4 0 0 1-1.4 5.44M187.46 214a4 4 0 0 1-1.46 5.46a3.93 3.93 0 0 1-2 .54a4 4 0 0 1-3.46-2a61 61 0 0 0-105.08 0a4 4 0 0 1-6.92-4a68.35 68.35 0 0 1 39.19-31a44 44 0 1 1 40.54 0a68.35 68.35 0 0 1 39.19 31M128 180a36 36 0 1 0-36-36a36 36 0 0 0 36 36m-64-64a28 28 0 1 1 27.12-35a4 4 0 0 0 7.75-2a36 36 0 1 0-53.57 39.75a63.55 63.55 0 0 0-32.5 22.85a4 4 0 0 0 6.4 4.8A55.55 55.55 0 0 1 64 124a4 4 0 0 0 0-8" />
        </symbol>
        <symbol id='job' viewBox="0 0 24 24">
            <path fill="#333333"
                d="M4.616 20q-.691 0-1.153-.462T3 18.384V8.616q0-.691.463-1.153T4.615 7H9V5.615q0-.69.463-1.153T10.616 4h2.769q.69 0 1.153.462T15 5.615V7h4.385q.69 0 1.152.463T21 8.616v9.769q0 .69-.463 1.153T19.385 20zm0-1h14.769q.23 0 .423-.192t.192-.424V8.616q0-.231-.192-.424T19.385 8H4.615q-.23 0-.423.192T4 8.616v9.769q0 .23.192.423t.423.192M10 7h4V5.615q0-.23-.192-.423T13.385 5h-2.77q-.23 0-.423.192T10 5.615zM4 19V8z" />
        </symbol>
        <symbol id='filter' viewBox="0 0 24 24">
            <path fill="#333333"
                d="M14.037 20.937a1 1 0 0 1-.518-.145l-3.334-2a2.55 2.55 0 0 1-1.233-2.176v-4.525a1.53 1.53 0 0 0-.284-.891L4.013 4.658a1.01 1.01 0 0 1 .822-1.6h14.33a1.009 1.009 0 0 1 .822 1.6L15.332 11.2a1.53 1.53 0 0 0-.285.891v7.834a1.013 1.013 0 0 1-1.01 1.012M4.835 4.063l4.647 6.557a2.5 2.5 0 0 1 .47 1.471v4.524a1.54 1.54 0 0 0 .747 1.318l3.334 2l.014-7.843a2.5 2.5 0 0 1 .471-1.471l4.654-6.542Z" />
        </symbol>
        <symbol id='formError' viewBox="0 0 25 25">
            <path fill="#e11d48"
                d="M12 22C6.477 22 2 17.523 2 12S6.477 2 12 2s10 4.477 10 10c-.006 5.52-4.48 9.994-10 10Zm-1-7v2h2v-2h-2Zm0-8v6h2V7h-2Z" />
        </symbol>
        <symbol id='hamburger' viewBox="0 0 25 25">
            <path fill="none" stroke="#fff8e6" stroke-width="2" stroke-linecap="round"
                stroke-linejoin="round"
                d="M3 6.001h18m-18 6h18m-18 6h18" />
        </symbol>
        <symbol id='clock' viewBox="0 0 25 25">
            <path fill="#333333"
                d="M11.5 3a9.5 9.5 0 0 1 9.5 9.5a9.5 9.5 0 0 1-9.5 9.5A9.5 9.5 0 0 1 2 12.5A9.5 9.5 0 0 1 11.5 3m0 1A8.5 8.5 0 0 0 3 12.5a8.5 8.5 0 0 0 8.5 8.5a8.5 8.5 0 0 0 8.5-8.5A8.5 8.5 0 0 0 11.5 4M11 7h1v5.42l4.7 2.71l-.5.87l-5.2-3z" />
        </symbol>
        <symbol id='date' viewBox="0 0 25 25">
            <path fill="#666666"
                d="M14.5 16h-13C.67 16 0 15.33 0 14.5v-12C0 1.67.67 1 1.5 1h13c.83 0 1.5.67 1.5 1.5v12c0 .83-.67 1.5-1.5 1.5M1.5 2c-.28 0-.5.22-.5.5v12c0 .28.22.5.5.5h13c.28 0 .5-.22.5-.5v-12c0-.28-.22-.5-.5-.5z" />
            <path fill="#666666"
                d="M4.5 4c-.28 0-.5-.22-.5-.5v-3c0-.28.22-.5.5-.5s.5.22.5.5v3c0 .28-.22.5-.5.5m7 0c-.28 0-.5-.22-.5-.5v-3c0-.28.22-.5.5-.5s.5.22.5.5v3c0 .28-.22.5-.5.5m4 2H.5C.22 6 0 5.78 0 5.5S.22 5 .5 5h15c.28 0 .5.22.5.5s-.22.5-.5.5" />
        </symbol>
        <symbol id='arrow-right' viewBox="0 0 25 25">
            <path fill="#cccccc"
                d="M12.003 21q-1.866 0-3.51-.708q-1.643-.709-2.859-1.924t-1.925-2.856T3 12.003t.709-3.51Q4.417 6.85 5.63 5.634t2.857-1.925T11.997 3t3.51.709q1.643.708 2.859 1.922t1.925 2.857t.709 3.509t-.708 3.51t-1.924 2.859t-2.856 1.925t-3.509.709m1.409-8.5l-1.766 1.766q-.14.14-.13.334q.009.194.15.335q.14.14.347.14t.34-.14l2.37-2.37q.243-.242.243-.565t-.243-.565l-2.388-2.389q-.14-.14-.335-.14t-.334.14t-.141.348t.14.34l1.747 1.766H9q-.213 0-.356.144t-.144.357t.144.356T9 12.5z" />
        </symbol>
    </defs>
</svg>      